<?xml version="1.0" standalone="no"?>
<!DOCTYPE svg PUBLIC "-//W3C//DTD SVG 20010904//EN"
 "http://www.w3.org/TR/2001/REC-SVG-20010904/DTD/svg10.dtd">
<svg version="1.0" xmlns="http://www.w3.org/2000/svg"
 width="480.000000pt" height="360.000000pt" viewBox="0 0 480.000000 360.000000"
 preserveAspectRatio="xMidYMid meet">
<metadata>
Created by potrace 1.16, written by Peter Selinger 2001-2019
</metadata>
<g transform="translate(0.000000,360.000000) scale(0.100000,-0.100000)"
fill="#000000" stroke="none">
<path d="M2336 2550 c-366 -46 -718 -210 -947 -442 -101 -101 -127 -146 -35
-60 190 179 473 319 776 383 138 29 388 32 494 6 146 -37 249 -105 301 -198
27 -49 30 -63 30 -145 0 -86 -2 -94 -42 -175 -23 -46 -54 -97 -68 -114 l-25
-30 17 32 c17 30 16 38 -6 185 -12 84 -25 163 -28 176 -5 22 -8 23 -120 20
l-115 -3 -49 -95 c-53 -101 -352 -688 -357 -702 -2 -4 22 -8 53 -8 45 0 70 7
116 31 33 18 57 34 55 37 -3 2 6 26 20 53 l24 49 61 0 c37 0 58 -4 54 -10 -3
-5 -39 -28 -78 -50 -40 -22 -68 -40 -63 -40 13 0 149 75 221 122 52 34 55 35
25 9 l-34 -31 35 0 c25 0 55 13 100 41 100 65 49 17 -66 -60 -265 -181 -583
-304 -879 -341 -137 -18 -349 -8 -446 20 -151 43 -254 117 -311 222 -33 60
-34 67 -34 168 0 94 4 113 31 181 77 191 279 411 510 555 82 51 100 70 27 28
-667 -383 -888 -968 -459 -1214 28 -16 92 -41 141 -56 85 -26 101 -28 285 -28
165 0 211 3 299 22 192 42 402 119 561 205 87 47 263 161 280 182 21 25 28 17
35 -40 l7 -55 94 0 c92 0 94 1 94 23 0 20 -24 179 -34 229 -2 9 14 38 36 64
74 90 83 111 21 51 -49 -47 -61 -55 -67 -42 -14 37 -4 67 46 132 282 373 101
696 -405 717 -61 3 -143 1 -181 -4z m339 -679 c8 -79 15 -152 15 -162 0 -17
-9 -19 -96 -19 -54 0 -94 4 -92 9 21 58 154 339 155 329 1 -7 9 -78 18 -157z"/>
<path d="M1543 2178 c3 -7 42 -97 87 -200 l82 -187 -162 -203 -162 -203 102
-3 c61 -2 107 2 115 8 7 5 50 62 96 125 46 63 86 115 89 115 3 0 28 -56 55
-125 l50 -125 107 0 c107 0 108 0 99 23 -5 12 -46 100 -90 196 -45 95 -81 180
-81 188 0 7 68 98 150 202 83 104 150 192 150 195 0 3 -48 6 -107 6 l-108 0
-80 -115 c-44 -63 -84 -113 -89 -112 -5 2 -28 52 -51 113 l-43 109 -107 3
c-84 2 -106 0 -102 -10z"/>
<path d="M3180 2179 c0 -11 -125 -720 -136 -771 l-6 -28 91 0 c50 0 91 1 91 3
1 1 13 70 29 152 l27 150 136 3 136 3 7 56 c4 31 9 62 12 70 4 10 -21 13 -131
13 -136 0 -136 0 -132 23 3 12 10 49 16 82 21 118 0 104 172 107 l152 3 13 60
c7 33 12 66 13 73 0 9 -55 12 -245 12 -170 0 -245 -3 -245 -11z"/>
</g>
</svg>
